  0
SECTION
  2
HEADER
  9
$ACADVER
  1
AC1014
  9
$HANDSEED
  5
FFFF
  9
$MEASUREMENT
 70
     1
  0
ENDSEC
  0
SECTION
  2
TABLES
  0
TABLE
  2
VPORT
  5
8
330
0
100
AcDbSymbolTable
 70
     4
  0
VPORT
  5
2E
330
8
100
AcDbSymbolTableRecord
100
AcDbViewportTableRecord
  2
*ACTIVE
 70
     0
 10
0.0
 20
0.0
 11
1.0
 21
1.0
 12
210.0
 22
148.5
 13
0.0
 23
0.0
 14
10.0
 24
10.0
 15
10.0
 25
10.0
 16
0.0
 26
0.0
 36
1.0
 17
0.0
 27
0.0
 37
0.0
 40
341.0
 41
1.24
 42
50.0
 43
0.0
 44
0.0
 50
0.0
 51
0.0
 71
     0
 72
   100
 73
     1
 74
     3
 75
     0
 76
     0
 77
     0
 78
     0
  0
ENDTAB
  0
TABLE
  2
LTYPE
  5
5
330
0
100
AcDbSymbolTable
 70
     1
  0
LTYPE
  5
14
330
5
100
AcDbSymbolTableRecord
100
AcDbLinetypeTableRecord
  2
BYBLOCK
 70
     0
  3

 72
    65
 73
     0
 40
0.0
  0
LTYPE
  5
15
330
5
100
AcDbSymbolTableRecord
100
AcDbLinetypeTableRecord
  2
BYLAYER
 70
     0
  3

 72
    65
 73
     0
 40
0.0
  0
LTYPE
  5
16
330
5
100
AcDbSymbolTableRecord
100
AcDbLinetypeTableRecord
  2
CONTINUOUS
 70
     0
  3
Solid line
 72
    65
 73
     0
 40
0.0
  0
ENDTAB
  0
TABLE
  2
LAYER
  5
2
100
AcDbSymbolTable
 70
3
  0
LAYER
  5
50
100
AcDbSymbolTableRecord
100
AcDbLayerTableRecord
  2
0
 70
0
  6
CONTINUOUS
  0
LAYER
  5
51
100
AcDbSymbolTableRecord
100
AcDbLayerTableRecord
  2
base
 70
0
  6
CONTINUOUS
  0
LAYER
  5
52
100
AcDbSymbolTableRecord
100
AcDbLayerTableRecord
  2
Layer
 70
0
  6
CONTINUOUS
  0
ENDTAB
  0
TABLE
  2
STYLE
  5
3
330
0
100
AcDbSymbolTable
 70
     1
  0
STYLE
  5
11
330
3
100
AcDbSymbolTableRecord
100
AcDbTextStyleTableRecord
  2
STANDARD
 70
     0
 40
0.0
 41
1.0
 50
0.0
 71
     0
 42
2.5
  3
txt
  4

  0
ENDTAB
  0
TABLE
  2
VIEW
  5
6
330
0
100
AcDbSymbolTable
 70
     0
  0
ENDTAB
  0
TABLE
  2
UCS
  5
7
330
0
100
AcDbSymbolTable
 70
     0
  0
ENDTAB
  0
TABLE
  2
APPID
  5
9
330
0
100
AcDbSymbolTable
 70
     2
  0
APPID
  5
12
330
9
100
AcDbSymbolTableRecord
100
AcDbRegAppTableRecord
  2
ACAD
 70
     0
  0
ENDTAB
  0
TABLE
  2
DIMSTYLE
  5
A
330
0
100
AcDbSymbolTable
 70
     1
  0
DIMSTYLE
105
27
330
A
100
AcDbSymbolTableRecord
100
AcDbDimStyleTableRecord
  2
ISO-25
 70
     0
  3

  4

  5

  6

  7

 40
1.0
 41
2.5
 42
0.625
 43
3.75
 44
1.25
 45
0.0
 46
0.0
 47
0.0
 48
0.0
140
2.5
141
2.5
142
0.0
143
0.03937007874016
144
1.0
145
0.0
146
1.0
147
0.625
 71
     0
 72
     0
 73
     0
 74
     0
 75
     0
 76
     0
 77
     1
 78
     8
170
     0
171
     3
172
     1
173
     0
174
     0
175
     0
176
     0
177
     0
178
     0
270
     2
271
     2
272
     2
273
     2
274
     3
340
11
275
     0
280
     0
281
     0
282
     0
283
     0
284
     8
285
     0
286
     0
287
     3
288
     0
  0
ENDTAB
  0
TABLE
  2
BLOCK_RECORD
  5
1
330
0
100
AcDbSymbolTable
 70
     1
  0
BLOCK_RECORD
  5
1F
330
1
100
AcDbSymbolTableRecord
100
AcDbBlockTableRecord
  2
*MODEL_SPACE
  0
BLOCK_RECORD
  5
1B
330
1
100
AcDbSymbolTableRecord
100
AcDbBlockTableRecord
  2
*PAPER_SPACE
  0
ENDTAB
  0
ENDSEC
  0
SECTION
  2
BLOCKS
  0
BLOCK
  5
20
330
1F
100
AcDbEntity
  8
0
100
AcDbBlockBegin
  2
*MODEL_SPACE
 70
     0
 10
0.0
 20
0.0
 30
0.0
  3
*MODEL_SPACE
  1

  0
ENDBLK
  5
21
330
1F
100
AcDbEntity
  8
0
100
AcDbBlockEnd
  0
BLOCK
  5
1C
330
1B
100
AcDbEntity
 67
     1
  8
0
100
AcDbBlockBegin
  2
*PAPER_SPACE
  1

  0
ENDBLK
  5
1D
330
1B
100
AcDbEntity
 67
     1
  8
0
100
AcDbBlockEnd
  0
ENDSEC
  0
SECTION
  2
ENTITIES
  0
SPLINE
  5
100
100
AcDbEntity
  8
Layer
 62
7
100
AcDbSpline
 70
8
 71
3
 72
8
 73
4
 74
0
 40
0
 40
0
 40
0
 40
0
 40
1
 40
1
 40
1
 40
1
 10
-3026.285680
 20
-294.857116
 30
0.0
 10
-3332.475280
 20
-141.092636
 30
0.0
 10
-3140.283280
 20
206.489564
 30
0.0
 10
-2902.857200
 20
196.571444
 30
0.0
  0
SPLINE
  5
101
100
AcDbEntity
  8
Layer
 62
7
100
AcDbSpline
 70
8
 71
3
 72
8
 73
4
 74
0
 40
0
 40
0
 40
0
 40
0
 40
1
 40
1
 40
1
 40
1
 10
-2902.857200
 20
196.571444
 30
0.0
 10
-2556.851040
 20
182.117564
 30
0.0
 10
-2460.654960
 20
-375.226716
 30
0.0
 10
-2882.285760
 20
-462.171436
 30
0.0
  0
SPLINE
  5
102
100
AcDbEntity
  8
Layer
 62
7
100
AcDbSpline
 70
8
 71
3
 72
8
 73
4
 74
0
 40
0
 40
0
 40
0
 40
0
 40
1
 40
1
 40
1
 40
1
 10
-2882.285760
 20
-462.171436
 30
0.0
 10
-3589.783280
 20
-608.064716
 30
0.0
 10
-3735.263440
 20
284.715788
 30
0.0
 10
-3163.428560
 20
621.714300
 30
0.0
  0
SPLINE
  5
103
100
AcDbEntity
  8
Layer
 62
7
100
AcDbSpline
 70
8
 71
3
 72
8
 73
4
 74
0
 40
0
 40
0
 40
0
 40
0
 40
1
 40
1
 40
1
 40
1
 10
-3163.428560
 20
621.714300
 30
0.0
 10
-2905.306560
 20
773.832928
 30
0.0
 10
-2683.780400
 20
1046.878572
 30
0.0
 10
-2622.106480
 20
1339.261388
 30
0.0
  0
SPLINE
  5
104
100
AcDbEntity
  8
Layer
 62
7
100
AcDbSpline
 70
8
 71
3
 72
8
 73
4
 74
0
 40
0
 40
0
 40
0
 40
0
 40
1
 40
1
 40
1
 40
1
 10
-2622.106480
 20
1339.261388
 30
0.0
 10
-2572.995040
 20
1572.088228
 30
0.0
 10
-2650.947200
 20
2063.237284
 30
0.0
 10
-2779.198880
 20
2071.086884
 30
0.0
  0
SPLINE
  5
105
100
AcDbEntity
  8
Layer
 62
7
100
AcDbSpline
 70
8
 71
3
 72
8
 73
4
 74
0
 40
0
 40
0
 40
0
 40
0
 40
1
 40
1
 40
1
 40
1
 10
-2779.198880
 20
2071.086884
 30
0.0
 10
-2908.204400
 20
2078.982644
 30
0.0
 10
-3094.441600
 20
1725.925924
 30
0.0
 10
-3108.571440
 20
1512.699748
 30
0.0
  0
SPLINE
  5
106
100
AcDbEntity
  8
Layer
 62
7
100
AcDbSpline
 70
8
 71
3
 72
8
 73
4
 74
0
 40
0
 40
0
 40
0
 40
0
 40
1
 40
1
 40
1
 40
1
 10
-3108.571440
 20
1512.699748
 30
0.0
 10
-3136.466800
 20
1091.746132
 30
0.0
 10
-2863.000960
 20
-382.427996
 30
0.0
 10
-2816.000000
 20
-909.714236
 30
0.0
  0
SPLINE
  5
107
100
AcDbEntity
  8
Layer
 62
7
100
AcDbSpline
 70
8
 71
3
 72
8
 73
4
 74
0
 40
0
 40
0
 40
0
 40
0
 40
1
 40
1
 40
1
 40
1
 10
-2816.000000
 20
-909.714236
 30
0.0
 10
-2791.492800
 20
-1184.650956
 30
0.0
 10
-3103.160960
 20
-1358.045516
 30
0.0
 10
-3285.518160
 20
-1167.837516
 30
0.0
  0
SPLINE
  5
108
100
AcDbEntity
  8
Layer
 62
7
100
AcDbSpline
 70
8
 71
3
 72
8
 73
4
 74
0
 40
0
 40
0
 40
0
 40
0
 40
1
 40
1
 40
1
 40
1
 10
-3285.518160
 20
-1167.837516
 30
0.0
 10
-3066.324000
 20
-1214.606716
 30
0.0
 10
-2963.570480
 20
-816.175116
 30
0.0
 10
-3247.702960
 20
-795.103676
 30
0.0
  0
SPLINE
  5
109
100
AcDbEntity
  8
Layer
 62
7
100
AcDbSpline
 70
8
 71
3
 72
8
 73
4
 74
0
 40
0
 40
0
 40
0
 40
0
 40
1
 40
1
 40
1
 40
1
 10
-3247.702960
 20
-795.103676
 30
0.0
 10
-3531.079440
 20
-774.088316
 30
0.0
 10
-3572.315920
 20
-1318.421756
 30
0.0
 10
-3126.377840
 20
-1315.069996
 30
0.0
  0
SPLINE
  5
10a
100
AcDbEntity
  8
Layer
 62
7
100
AcDbSpline
 70
8
 71
3
 72
8
 73
4
 74
0
 40
0
 40
0
 40
0
 40
0
 40
1
 40
1
 40
1
 40
1
 10
-3126.377840
 20
-1315.069996
 30
0.0
 10
-2995.167680
 20
-1314.083756
 30
0.0
 10
-2718.597120
 20
-1248.782876
 30
0.0
 10
-2754.448160
 20
-910.039116
 30
0.0
  0
SPLINE
  5
10b
100
AcDbEntity
  8
Layer
 62
7
100
AcDbSpline
 70
8
 71
3
 72
8
 73
4
 74
0
 40
0
 40
0
 40
0
 40
0
 40
1
 40
1
 40
1
 40
1
 10
-2754.448160
 20
-910.039116
 30
0.0
 10
-2774.538320
 20
-720.214076
 30
0.0
 10
-3085.276880
 20
1033.323140
 30
0.0
 10
-3025.176480
 20
1372.268660
 30
0.0
  0
SPLINE
  5
10c
100
AcDbEntity
  8
Layer
 62
7
100
AcDbSpline
 70
8
 71
3
 72
8
 73
4
 74
0
 40
0
 40
0
 40
0
 40
0
 40
1
 40
1
 40
1
 40
1
 10
-3025.176480
 20
1372.268660
 30
0.0
 10
-2926.496400
 20
1928.790404
 30
0.0
 10
-2509.893280
 20
1869.903764
 30
0.0
 10
-2761.697440
 20
1344.000020
 30
0.0
  0
SPLINE
  5
10d
100
AcDbEntity
  8
Layer
 62
7
100
AcDbSpline
 70
8
 71
3
 72
8
 73
4
 74
0
 40
0
 40
0
 40
0
 40
0
 40
1
 40
1
 40
1
 40
1
 10
-2761.697440
 20
1344.000020
 30
0.0
 10
-2941.547680
 20
968.375060
 30
0.0
 10
-3408.994080
 20
906.223674
 30
0.0
 10
-3596.375360
 20
414.336196
 30
0.0
  0
SPLINE
  5
10e
100
AcDbEntity
  8
Layer
 62
7
100
AcDbSpline
 70
8
 71
3
 72
8
 73
4
 74
0
 40
0
 40
0
 40
0
 40
0
 40
1
 40
1
 40
1
 40
1
 10
-3596.375360
 20
414.336196
 30
0.0
 10
-3829.686480
 20
-198.119836
 30
0.0
 10
-3276.831440
 20
-638.508156
 30
0.0
 10
-2848.000000
 20
-526.171436
 30
0.0
  0
SPLINE
  5
10f
100
AcDbEntity
  8
Layer
 62
7
100
AcDbSpline
 70
8
 71
3
 72
8
 73
4
 74
0
 40
0
 40
0
 40
0
 40
0
 40
1
 40
1
 40
1
 40
1
 10
-2848.000000
 20
-526.171436
 30
0.0
 10
-2295.516160
 20
-381.442636
 30
0.0
 10
-2366.471920
 20
416.038644
 30
0.0
 10
-2848.000000
 20
429.714300
 30
0.0
  0
SPLINE
  5
110
100
AcDbEntity
  8
Layer
 62
7
100
AcDbSpline
 70
8
 71
3
 72
8
 73
4
 74
0
 40
0
 40
0
 40
0
 40
0
 40
1
 40
1
 40
1
 40
1
 10
-2848.000000
 20
429.714300
 30
0.0
 10
-3305.875680
 20
442.718220
 30
0.0
 10
-3434.624640
 20
-182.190236
 30
0.0
 10
-3026.285680
 20
-294.857116
 30
0.0
  0
SPLINE
  5
111
100
AcDbEntity
  8
Layer
 62
7
100
AcDbSpline
 70
8
 71
3
 72
8
 73
4
 74
0
 40
0
 40
0
 40
0
 40
0
 40
1
 40
1
 40
1
 40
1
 10
-2090.971440
 20
912.685733
 30
0.0
 10
-1987.541360
 20
1029.597436
 30
0.0
 10
-1759.674800
 20
975.245628
 30
0.0
 10
-1755.428560
 20
745.142876
 30
0.0
  0
SPLINE
  5
112
100
AcDbEntity
  8
Layer
 62
7
100
AcDbSpline
 70
8
 71
3
 72
8
 73
4
 74
0
 40
0
 40
0
 40
0
 40
0
 40
1
 40
1
 40
1
 40
1
 10
-1755.428560
 20
745.142876
 30
0.0
 10
-1752.536080
 20
588.397452
 30
0.0
 10
-1973.044960
 20
467.299676
 30
0.0
 10
-2110.431280
 20
588.605084
 30
0.0
  0
SPLINE
  5
113
100
AcDbEntity
  8
Layer
 62
7
100
AcDbSpline
 70
8
 71
3
 72
8
 73
4
 74
0
 40
0
 40
0
 40
0
 40
0
 40
1
 40
1
 40
1
 40
1
 10
-2110.431280
 20
588.605084
 30
0.0
 10
-2362.652400
 20
811.304022
 30
0.0
 10
-2128.896560
 20
1289.832932
 30
0.0
 10
-1700.476320
 20
1285.355788
 30
0.0
  0
SPLINE
  5
114
100
AcDbEntity
  8
Layer
 62
7
100
AcDbSpline
 70
8
 71
3
 72
8
 73
4
 74
0
 40
0
 40
0
 40
0
 40
0
 40
1
 40
1
 40
1
 40
1
 10
-1700.476320
 20
1285.355788
 30
0.0
 10
-1184.128880
 20
1259.403804
 30
0.0
 10
-840.077040
 20
634.891372
 30
0.0
 10
-1389.714320
 20
-23.871196
 30
0.0
  0
SPLINE
  5
115
100
AcDbEntity
  8
Layer
 62
7
100
AcDbSpline
 70
8
 71
3
 72
8
 73
4
 74
0
 40
0
 40
0
 40
0
 40
0
 40
1
 40
1
 40
1
 40
1
 10
-1389.714320
 20
-23.871196
 30
0.0
 10
-1663.925040
 20
-352.523916
 30
0.0
 10
-2121.481440
 20
-474.696476
 30
0.0
 10
-2272.000000
 20
-489.142876
 30
0.0
  0
SPLINE
  5
116
100
AcDbEntity
  8
Layer
 62
7
100
AcDbSpline
 70
8
 71
3
 72
8
 73
4
 74
0
 40
0
 40
0
 40
0
 40
0
 40
1
 40
1
 40
1
 40
1
 10
-2272.000000
 20
-489.142876
 30
0.0
 10
-2106.582640
 20
-438.688956
 30
0.0
 10
-1668.852800
 20
-184.030396
 30
0.0
 10
-1517.714320
 20
96.000020
 30
0.0
  0
SPLINE
  5
117
100
AcDbEntity
  8
Layer
 62
7
100
AcDbSpline
 70
8
 71
3
 72
8
 73
4
 74
0
 40
0
 40
0
 40
0
 40
0
 40
1
 40
1
 40
1
 40
1
 10
-1517.714320
 20
96.000020
 30
0.0
 10
-1377.611120
 20
355.584188
 30
0.0
 10
-1332.827280
 20
696.108828
 30
0.0
 10
-1448.033600
 20
978.190580
 30
0.0
  0
SPLINE
  5
118
100
AcDbEntity
  8
Layer
 62
7
100
AcDbSpline
 70
8
 71
3
 72
8
 73
4
 74
0
 40
0
 40
0
 40
0
 40
0
 40
1
 40
1
 40
1
 40
1
 10
-1448.033600
 20
978.190580
 30
0.0
 10
-1598.309760
 20
1346.140540
 30
0.0
 10
-2103.671040
 20
1208.094772
 30
0.0
 10
-2090.971440
 20
912.685733
 30
0.0
  0
LWPOLYLINE
  5
119
100
AcDbEntity
  8
Layer
 62
7
100
AcDbPolyline
 90
2
 70
1
 10
-3026.285680
 20
-294.857116
 30
0.0
 10
-3026.285680
 20
-294.857116
 30
0.0
  0
SPLINE
  5
11a
100
AcDbEntity
  8
Layer
 62
5
100
AcDbSpline
 70
8
 71
3
 72
8
 73
4
 74
0
 40
0
 40
0
 40
0
 40
0
 40
1
 40
1
 40
1
 40
1
 10
-743.472322
 20
998.838852
 30
0.0
 10
-743.472322
 20
956.109150
 30
0.0
 10
-766.268347
 20
916.625277
 30
0.0
 10
-803.273354
 20
895.260426
 30
0.0
  0
SPLINE
  5
11b
100
AcDbEntity
  8
Layer
 62
5
100
AcDbSpline
 70
8
 71
3
 72
8
 73
4
 74
0
 40
0
 40
0
 40
0
 40
0
 40
1
 40
1
 40
1
 40
1
 10
-803.273354
 20
895.260426
 30
0.0
 10
-840.278362
 20
873.895575
 30
0.0
 10
-885.870411
 20
873.895575
 30
0.0
 10
-922.875418
 20
895.260426
 30
0.0
  0
SPLINE
  5
11c
100
AcDbEntity
  8
Layer
 62
5
100
AcDbSpline
 70
8
 71
3
 72
8
 73
4
 74
0
 40
0
 40
0
 40
0
 40
0
 40
1
 40
1
 40
1
 40
1
 10
-922.875418
 20
895.260426
 30
0.0
 10
-959.880426
 20
916.625277
 30
0.0
 10
-982.676450
 20
956.109150
 30
0.0
 10
-982.676440
 20
998.838852
 30
0.0
  0
SPLINE
  5
11d
100
AcDbEntity
  8
Layer
 62
5
100
AcDbSpline
 70
8
 71
3
 72
8
 73
4
 74
0
 40
0
 40
0
 40
0
 40
0
 40
1
 40
1
 40
1
 40
1
 10
-982.676440
 20
998.838852
 30
0.0
 10
-982.676440
 20
1041.568554
 30
0.0
 10
-959.880416
 20
1081.052427
 30
0.0
 10
-922.875408
 20
1102.417278
 30
0.0
  0
SPLINE
  5
11e
100
AcDbEntity
  8
Layer
 62
5
100
AcDbSpline
 70
8
 71
3
 72
8
 73
4
 74
0
 40
0
 40
0
 40
0
 40
0
 40
1
 40
1
 40
1
 40
1
 10
-922.875408
 20
1102.417278
 30
0.0
 10
-885.870401
 20
1123.782129
 30
0.0
 10
-840.278352
 20
1123.782129
 30
0.0
 10
-803.273344
 20
1102.417278
 30
0.0
  0
SPLINE
  5
11f
100
AcDbEntity
  8
Layer
 62
5
100
AcDbSpline
 70
8
 71
3
 72
8
 73
4
 74
0
 40
0
 40
0
 40
0
 40
0
 40
1
 40
1
 40
1
 40
1
 10
-803.273344
 20
1102.417278
 30
0.0
 10
-766.268337
 20
1081.052427
 30
0.0
 10
-743.472312
 20
1041.568554
 30
0.0
 10
-743.472312
 20
998.838852
 30
0.0
  0
LWPOLYLINE
  5
120
100
AcDbEntity
  8
Layer
 62
7
100
AcDbPolyline
 90
2
 70
1
 10
-2090.971440
 20
912.685733
 30
0.0
 10
-2090.971440
 20
912.685733
 30
0.0
  0
SPLINE
  5
121
100
AcDbEntity
  8
Layer
 62
5
100
AcDbSpline
 70
8
 71
3
 72
8
 73
4
 74
0
 40
0
 40
0
 40
0
 40
0
 40
1
 40
1
 40
1
 40
1
 10
-743.472290
 20
478.375756
 30
0.0
 10
-743.472290
 20
435.646054
 30
0.0
 10
-766.268315
 20
396.162181
 30
0.0
 10
-803.273322
 20
374.797330
 30
0.0
  0
SPLINE
  5
122
100
AcDbEntity
  8
Layer
 62
5
100
AcDbSpline
 70
8
 71
3
 72
8
 73
4
 74
0
 40
0
 40
0
 40
0
 40
0
 40
1
 40
1
 40
1
 40
1
 10
-803.273322
 20
374.797330
 30
0.0
 10
-840.278330
 20
353.432479
 30
0.0
 10
-885.870379
 20
353.432479
 30
0.0
 10
-922.875386
 20
374.797330
 30
0.0
  0
SPLINE
  5
123
100
AcDbEntity
  8
Layer
 62
5
100
AcDbSpline
 70
8
 71
3
 72
8
 73
4
 74
0
 40
0
 40
0
 40
0
 40
0
 40
1
 40
1
 40
1
 40
1
 10
-922.875386
 20
374.797330
 30
0.0
 10
-959.880394
 20
396.162181
 30
0.0
 10
-982.676418
 20
435.646054
 30
0.0
 10
-982.676408
 20
478.375756
 30
0.0
  0
SPLINE
  5
124
100
AcDbEntity
  8
Layer
 62
5
100
AcDbSpline
 70
8
 71
3
 72
8
 73
4
 74
0
 40
0
 40
0
 40
0
 40
0
 40
1
 40
1
 40
1
 40
1
 10
-982.676408
 20
478.375756
 30
0.0
 10
-982.676408
 20
521.105458
 30
0.0
 10
-959.880384
 20
560.589331
 30
0.0
 10
-922.875376
 20
581.954182
 30
0.0
  0
SPLINE
  5
125
100
AcDbEntity
  8
Layer
 62
5
100
AcDbSpline
 70
8
 71
3
 72
8
 73
4
 74
0
 40
0
 40
0
 40
0
 40
0
 40
1
 40
1
 40
1
 40
1
 10
-922.875376
 20
581.954182
 30
0.0
 10
-885.870369
 20
603.319033
 30
0.0
 10
-840.278320
 20
603.319033
 30
0.0
 10
-803.273312
 20
581.954182
 30
0.0
  0
SPLINE
  5
126
100
AcDbEntity
  8
Layer
 62
5
100
AcDbSpline
 70
8
 71
3
 72
8
 73
4
 74
0
 40
0
 40
0
 40
0
 40
0
 40
1
 40
1
 40
1
 40
1
 10
-803.273312
 20
581.954182
 30
0.0
 10
-766.268305
 20
560.589331
 30
0.0
 10
-743.472280
 20
521.105458
 30
0.0
 10
-743.472280
 20
478.375756
 30
0.0
  0
LWPOLYLINE
  5
127
100
AcDbEntity
  8
Layer
 62
5
100
AcDbPolyline
 90
2
 70
1
 10
-743.472312
 20
998.838852
 30
0.0
 10
-743.472302
 20
998.838852
 30
0.0
  0
LWPOLYLINE
  5
128
100
AcDbEntity
  8
Layer
 62
5
100
AcDbPolyline
 90
2
 70
1
 10
-743.472280
 20
478.375756
 30
0.0
 10
-743.472270
 20
478.375756
 30
0.0
  0
ENDSEC
  0
SECTION
  2
OBJECTS
  0
DICTIONARY
  5
C
330
0
100
AcDbDictionary
  3
ACAD_GROUP
350
D
  3
ACAD_MLINESTYLE
350
17
  0
DICTIONARY
  5
D
330
C
100
AcDbDictionary
  0
DICTIONARY
  5
1A
330
C
100
AcDbDictionary
  0
DICTIONARY
  5
17
330
C
100
AcDbDictionary
  3
STANDARD
350
18
  0
DICTIONARY
  5
19
330
C
100
AcDbDictionary
  0
ENDSEC
  0
EOF
